{
	"asset":{
		"version":"2.0",
		"generator":"Created using the official Cinema 4D glTF Exporter 1.000x287526"
	},
	"scenes":[{
		"nodes":[0,
		1,
		2]
	}],
	"nodes":[{
		"name":"ar_test02_1",
		"translation":[0.0,
		0.0,
		0.0],
		"rotation":[0.0,
		0.0,
		0.0,
		-1.0],
		"scale":[10.0,
		10.0,
		10.0],
		"mesh":0
	},
	{
		"name":"boots",
		"mesh":1
	},
	{
		"name":"ar_test02",
		"translation":[0.0,
		0.0,
		0.0],
		"rotation":[0.0,
		0.0,
		0.0,
		-1.0],
		"scale":[10.0,
		10.0,
		10.0],
		"mesh":2
	}],
	"meshes":[{
		"primitives":[{
			"attributes":{
				"POSITION":1,
				"NORMAL":2,
				"TEXCOORD_0":3
			},
			"indices":0,
			"material":0
		}]
	},
	{
		"primitives":[{
			"attributes":{
				"POSITION":5,
				"NORMAL":6,
				"TEXCOORD_0":7
			},
			"indices":4,
			"material":1
		}]
	},
	{
		"primitives":[{
			"attributes":{
				"POSITION":9,
				"NORMAL":10,
				"TEXCOORD_0":11
			},
			"indices":8,
			"material":2
		}]
	}],
	"accessors":[{
		"bufferView":0,
		"type":"SCALAR",
		"componentType":5123,
		"count":4074,
		"byteOffset":0,
		"min":[0],
		"max":[823]
	},
	{
		"bufferView":1,
		"type":"VEC3",
		"componentType":5126,
		"count":824,
		"byteOffset":0,
		"min":[-0.01878064125776291,
		0.10096205025911331,
		-0.021911637857556344],
		"max":[0.03691130131483078,
		0.15843665599822999,
		0.031256455928087237]
	},
	{
		"bufferView":1,
		"type":"VEC3",
		"componentType":5126,
		"count":824,
		"byteOffset":12,
		"min":[-0.9936971664428711,
		-0.9989148378372192,
		-0.9994179606437683],
		"max":[0.9963452219963074,
		0.9991763234138489,
		0.9984044432640076]
	},
	{
		"bufferView":1,
		"type":"VEC2",
		"componentType":5126,
		"count":824,
		"byteOffset":24,
		"min":[0.24805748462677003,
		0.5717920064926148],
		"max":[0.4908890724182129,
		0.6135866641998291]
	},
	{
		"bufferView":2,
		"type":"SCALAR",
		"componentType":5123,
		"count":61428,
		"byteOffset":0,
		"min":[0],
		"max":[14067]
	},
	{
		"bufferView":3,
		"type":"VEC3",
		"componentType":5126,
		"count":14068,
		"byteOffset":0,
		"min":[-0.4355897009372711,
		-0.000789421726949513,
		-0.6270967125892639],
		"max":[0.06128024682402611,
		0.4661891758441925,
		0.10843975841999054]
	},
	{
		"bufferView":3,
		"type":"VEC3",
		"componentType":5126,
		"count":14068,
		"byteOffset":12,
		"min":[-0.999944806098938,
		-0.9997196197509766,
		-0.999856173992157],
		"max":[0.999884307384491,
		0.9996140599250794,
		0.9999851584434509]
	},
	{
		"bufferView":3,
		"type":"VEC2",
		"componentType":5126,
		"count":14068,
		"byteOffset":24,
		"min":[0.04505537822842598,
		0.020195122808218004],
		"max":[0.8912913203239441,
		0.9809314012527466]
	},
	{
		"bufferView":4,
		"type":"SCALAR",
		"componentType":5123,
		"count":84915,
		"byteOffset":0,
		"min":[0],
		"max":[16833]
	},
	{
		"bufferView":5,
		"type":"VEC3",
		"componentType":5126,
		"count":16834,
		"byteOffset":0,
		"min":[-0.05716114491224289,
		0.02496860735118389,
		-0.04455427825450897],
		"max":[0.04128662496805191,
		0.18270714581012727,
		0.049046099185943606]
	},
	{
		"bufferView":5,
		"type":"VEC3",
		"componentType":5126,
		"count":16834,
		"byteOffset":12,
		"min":[-0.9999529123306274,
		-1.0,
		-1.0],
		"max":[0.9999728202819824,
		0.9999640583992004,
		1.0]
	},
	{
		"bufferView":5,
		"type":"VEC2",
		"componentType":5126,
		"count":16834,
		"byteOffset":24,
		"min":[0.009999938309192658,
		0.02500736713409424],
		"max":[0.9900001287460327,
		0.9900000095367432]
	}],
	"bufferViews":[{
		"buffer":0,
		"byteOffset":0,
		"byteLength":8148,
		"target":34963
	},
	{
		"buffer":0,
		"byteOffset":8148,
		"byteLength":26368,
		"target":34962,
		"byteStride":32
	},
	{
		"buffer":1,
		"byteOffset":0,
		"byteLength":122856,
		"target":34963
	},
	{
		"buffer":1,
		"byteOffset":122856,
		"byteLength":450176,
		"target":34962,
		"byteStride":32
	},
	{
		"buffer":2,
		"byteOffset":0,
		"byteLength":169830,
		"target":34963
	},
	{
		"buffer":2,
		"byteOffset":169832,
		"byteLength":538688,
		"target":34962,
		"byteStride":32
	}],
	"buffers":[{
		"uri":"data:application/octet-stream;base64,",
		"byteLength":34516
	},
	{
		"uri":"data:application/octet-stream;base64,",
		"byteLength":573032
	},
	{
		"uri":"data:application/octet-stream;base64,",
		"byteLength":708520
	}],
	"images":[{
		"uri":"data:image/jpeg;base64,"
	}],
	"samplers":[{
		"magFilter":9729,
		"minFilter":9729,
		"wrapS":10497,
		"wrapT":10497
	}],
	"textures":[{
		"sampler":0,
		"source":0
	}],
	"materials":[{
		"pbrMetallicRoughness":{
			"baseColorFactor":[0.8196078538894653,
			0.7111314535140992,
			0.3857022821903229,
			1.0],
			"metallicFactor":0.0,
			"roughnessFactor":0.36153845984568369
		},
		"emissiveFactor":[0.0,
		0.0,
		0.0],
		"alphaMode":"OPAQUE",
		"doubleSided":true,
		"name":"FABRIC 1_FRONT_6002467"
	},
	{
		"pbrMetallicRoughness":{
			"baseColorFactor":[0.12,
			0.12,
			0.12,
			1.0],
			"metallicFactor":0.0,
			"roughnessFactor":0.5
		},
		"emissiveFactor":[0.0,
		0.0,
		0.0],
		"alphaMode":"OPAQUE",
		"doubleSided":true,
		"name":"Mat"
	},
	{
		"pbrMetallicRoughness":{
			"baseColorTexture":{
				"index":0
			},
			"baseColorFactor":[1.0,
			1.0,
			1.0,
			1.0],
			"metallicFactor":0.0,
			"roughnessFactor":0.5153845764392246
		},
		"emissiveFactor":[0.0,
		0.0,
		0.0],
		"alphaMode":"OPAQUE",
		"doubleSided":true,
		"name":"Fabric17798553_FRONT_6025840"
	}]
}